<?xml version="1.0" encoding="UTF-8" standalone="no"?>
<!-- Generator: Adobe Illustrator 16.0.0, SVG Export Plug-In . SVG Version: 6.00 Build 0)  -->

<svg
   xmlns:dc="http://purl.org/dc/elements/1.1/"
   xmlns:cc="http://creativecommons.org/ns#"
   xmlns:rdf="http://www.w3.org/1999/02/22-rdf-syntax-ns#"
   xmlns:svg="http://www.w3.org/2000/svg"
   xmlns="http://www.w3.org/2000/svg"
   xmlns:sodipodi="http://sodipodi.sourceforge.net/DTD/sodipodi-0.dtd"
   xmlns:inkscape="http://www.inkscape.org/namespaces/inkscape"
   version="1.1"
   id="Layer_1"
   x="0px"
   y="0px"
   width="512px"
   height="512px"
   viewBox="0 0 512 512"
   enable-background="new 0 0 512 512"
   xml:space="preserve"
   sodipodi:docname="brush.svg"
   inkscape:version="0.92.2 (5c3e80d, 2017-08-06)"><metadata
     id="metadata13"><rdf:RDF><cc:Work
         rdf:about=""><dc:format>image/svg+xml</dc:format><dc:type
           rdf:resource="http://purl.org/dc/dcmitype/StillImage" /></cc:Work></rdf:RDF></metadata><defs
     id="defs11" /><sodipodi:namedview
     pagecolor="#ffffff"
     bordercolor="#666666"
     borderopacity="1"
     objecttolerance="10"
     gridtolerance="10"
     guidetolerance="10"
     inkscape:pageopacity="0"
     inkscape:pageshadow="2"
     inkscape:window-width="1366"
     inkscape:window-height="693"
     id="namedview9"
     showgrid="false"
     inkscape:zoom="0.4609375"
     inkscape:cx="-132.33898"
     inkscape:cy="251.66102"
     inkscape:window-x="0"
     inkscape:window-y="24"
     inkscape:window-maximized="1"
     inkscape:current-layer="Layer_1" /><g
     id="g6"
     style="fill:#000000;fill-opacity:1"><path
       d="M48.451,464.828c40.023-0.315,45.01-9.955,58.052-50.132c24.057-63.408,132.419,16.591,65.269,44.374   C104.622,486.852,8.428,465.143,48.451,464.828z"
       id="path2"
       style="fill:#000000;fill-opacity:1" /><path
       d="M458.857,46.902c-19.417-15.647-51.592-7.938-71.864,17.219L181.645,355.849c-20.272,25.154-20.171,20.347-0.754,35.992   c19.417,15.648,14.738,16.77,35.011-8.388l241.406-262.669C477.581,95.628,478.275,62.55,458.857,46.902z M406.065,81.825   c0,0-3-3.5-13-11.5c15-24.5,44.5-20,44.5-20C409.565,66.825,406.065,81.825,406.065,81.825z"
       id="path4"
       style="fill:#000000;fill-opacity:1" /></g></svg>