<?xml version="1.0" encoding="UTF-8" standalone="no"?>
<!-- Created with Inkscape (http://www.inkscape.org/) -->

<svg
   xmlns:dc="http://purl.org/dc/elements/1.1/"
   xmlns:cc="http://creativecommons.org/ns#"
   xmlns:rdf="http://www.w3.org/1999/02/22-rdf-syntax-ns#"
   xmlns:svg="http://www.w3.org/2000/svg"
   xmlns="http://www.w3.org/2000/svg"
   xmlns:sodipodi="http://sodipodi.sourceforge.net/DTD/sodipodi-0.dtd"
   xmlns:inkscape="http://www.inkscape.org/namespaces/inkscape"
   width="185.20833mm"
   height="22.66243mm"
   viewBox="0 0 185.20833 22.66243"
   version="1.1"
   id="svg8"
   inkscape:version="0.92.2 (5c3e80d, 2017-08-06)"
   sodipodi:docname="waltraud_schrift.svg">
  <defs
     id="defs2" />
  <sodipodi:namedview
     id="base"
     pagecolor="#ffffff"
     bordercolor="#666666"
     borderopacity="1.0"
     inkscape:pageopacity="0.0"
     inkscape:pageshadow="2"
     inkscape:zoom="0.49497475"
     inkscape:cx="274.78224"
     inkscape:cy="-2.1376371"
     inkscape:document-units="px"
     inkscape:current-layer="svg8"
     showgrid="false"
     showborder="false"
     fit-margin-top="0"
     fit-margin-left="0"
     fit-margin-right="0"
     fit-margin-bottom="0"
     inkscape:window-width="1366"
     inkscape:window-height="693"
     inkscape:window-x="0"
     inkscape:window-y="24"
     inkscape:window-maximized="1" />
  <metadata
     id="metadata5">
    <rdf:RDF>
      <cc:Work
         rdf:about="">
        <dc:format>image/svg+xml</dc:format>
        <dc:type
           rdf:resource="http://purl.org/dc/dcmitype/StillImage" />
        <dc:title></dc:title>
      </cc:Work>
    </rdf:RDF>
  </metadata>
  <path
     style="fill:#000000;stroke-width:0.33861336"
     d="m 124.61104,22.15817 c -0.65182,-0.24663 -0.99467,-0.45701 -0.76188,-0.46753 0.61587,-0.0278 0.61587,-19.18693 0,-19.43221 -0.23279,-0.0927 0.3856,-0.16152 1.37421,-0.15277 l 1.79746,0.0158 -0.10439,3.81797 c -0.0574,2.09988 -0.008,3.75765 0.11097,3.68393 0.11846,-0.0737 1.17178,-1.75004 2.34075,-3.72512 2.162,-3.65295 2.49637,-4.00546 3.61248,-3.80827 0.55122,0.0973 0.34718,0.65391 -1.61881,4.41546 l -2.24952,4.30404 1.41707,-0.19423 c 0.98712,-0.13528 1.76823,-0.0175 2.5746,0.38846 2.08563,1.04985 2.32679,1.62796 2.33518,5.59808 0.009,3.88612 0.42535,5.06067 1.80444,5.08065 0.72591,0.0105 0.72784,0.0221 0.0854,0.50792 -0.98384,0.74414 -2.14647,0.60239 -3.13055,-0.38169 -0.85995,-0.85995 -0.874,-0.94773 -0.65374,-4.08132 l 0.2251,-3.20246 -0.99788,-0.99789 c -1.20604,-1.20604 -2.66559,-1.31027 -4.28996,-0.30635 -1.47042,0.90876 -1.91727,2.36577 -1.78722,5.82739 0.0979,2.60551 -0.10346,3.69597 -0.66457,3.59907 -0.12867,-0.0222 -0.76729,-0.24218 -1.41912,-0.48879 z m -37.105258,-0.42887 c -1.792595,-1.12586 -2.173876,-2.45723 -2.173876,-7.59061 0,-3.98013 -0.07784,-4.62271 -0.619236,-5.11268 -0.340583,-0.30822 -0.988185,-0.56525 -1.439113,-0.57116 -0.793899,-0.0105 -0.799055,-0.0264 -0.162575,-0.50792 0.90509,-0.68458 1.970455,-0.62234 2.983211,0.1743 0.825605,0.64942 0.857807,0.82439 0.981637,5.33326 0.114135,4.15592 0.213221,4.79968 0.913085,5.93208 1.303263,2.10872 3.100083,2.11019 4.70806,0.004 0.841528,-1.10236 0.941092,-1.53114 1.036472,-4.46374 0.05806,-1.78432 -0.02429,-3.85373 -0.183004,-4.59868 -0.242361,-1.13777 -0.472764,-1.41472 -1.440157,-1.7311 -1.101331,-0.36021 -1.120191,-0.39349 -0.431827,-0.76188 1.057782,-0.56611 1.915772,-0.47308 2.919649,0.31657 l 0.892199,0.7018 v 6.27599 c 0,5.67991 0.0528,6.25575 0.555811,6.06272 0.47188,-0.18107 0.489015,-0.13282 0.113505,0.31967 -0.27156,0.32722 -0.845626,0.49361 -1.487007,0.43103 -0.899657,-0.0879 -1.059136,-0.25107 -1.148834,-1.17619 l -0.104143,-1.07426 -1.081202,1.1798 c -1.376146,1.50164 -3.27131,1.83778 -4.832648,0.85717 z m 57.902888,0 c -1.79259,-1.12586 -2.17388,-2.45723 -2.17388,-7.59061 0,-3.98013 -0.0778,-4.62271 -0.61924,-5.11268 -0.34058,-0.30822 -0.98818,-0.56525 -1.4391,-0.57116 -0.7939,-0.0105 -0.79906,-0.0264 -0.16258,-0.50792 0.90509,-0.68458 1.97046,-0.62234 2.9832,0.1743 0.82562,0.64942 0.85782,0.82439 0.98164,5.33326 0.11413,4.15592 0.21322,4.79968 0.91308,5.93208 1.30327,2.10872 3.1001,2.11019 4.70806,0.004 0.84153,-1.10236 0.94111,-1.53114 1.03649,-4.46374 0.0581,-1.78432 -0.0243,-3.85373 -0.18301,-4.59868 -0.24236,-1.13777 -0.47277,-1.41472 -1.44016,-1.7311 -1.10134,-0.36021 -1.1202,-0.39349 -0.43183,-0.76188 1.05779,-0.56611 1.91577,-0.47308 2.91965,0.31657 l 0.8922,0.7018 v 6.27599 c 0,5.67991 0.0528,6.25575 0.55582,6.06272 0.47188,-0.18107 0.48901,-0.13282 0.11348,0.31967 -0.27156,0.32722 -0.84562,0.49361 -1.48699,0.43103 -0.89967,-0.0879 -1.05915,-0.25107 -1.14884,-1.17619 l -0.10414,-1.07426 -1.0812,1.1798 c -1.37615,1.50164 -3.27131,1.83778 -4.83265,0.85717 z m -138.4657644,-0.19716 c -1.245312,-0.55349 -2.374941,-1.74608 -2.855659,-3.01483 -0.207044,-0.54645 -0.361168,-3.54942 -0.361168,-7.0371 0,-6.79145 -0.309332,-8.24218 -1.839303,-8.62618 -0.477449,-0.11988 -1.09699401,-0.13003 -1.37676701,-0.0226 -0.88394,0.3392 -0.550364,-0.29013 0.474756,-0.89568 1.16275801,-0.68686 1.72516801,-0.72085 2.92008301,-0.1764 1.621983,0.73902 1.852911,1.74291 1.852911,8.05484 0,6.53643 0.274949,7.69097 2.095957,8.80123 1.546694,0.94298 3.0430304,0.8768 4.3117174,-0.19074 l 1.04182,-0.87662 v -6.25107 c 0,-4.92751 -0.10885,-6.46155 -0.514078,-7.24518 -0.521666,-1.0088 -1.776474,-1.57554 -2.7019914,-1.22038 -0.929595,0.3567 -0.525313,-0.43479 0.4903484,-0.96001 1.27593,-0.65981 2.376192,-0.65589 3.329538,0.0122 1.567496,1.09791 1.766476,2.06769 1.766476,8.60917 0,6.70823 0.154403,7.33016 2.065149,8.31824 1.438563,0.74391 2.825922,0.60519 4.023222,-0.40227 l 1.06113,-0.89287 -0.103968,-6.75647 c -0.10332,-6.71436 -0.109165,-6.76068 -0.937779,-7.43102 -0.555694,-0.44956 -1.168999,-0.62536 -1.838682,-0.52707 l -1.004865,0.14753 0.926374,-0.79685 c 1.783525,-1.53412 4.256865,-0.61117 4.938423,1.84282 0.449577,1.61874 0.440437,10.61573 -0.01277,12.59796 -0.688556,3.01138 -2.754781,4.95923 -5.620686,5.29866 -1.959393,0.23205 -3.281934,-0.31199 -4.61783,-1.8996 l -0.864358,-1.02724 -0.693067,0.97334 c -1.313615,1.84479 -3.8586714,2.52631 -5.9549124,1.59465 z m 30.6445104,-0.0661 c 0,-0.3864 -0.171775,-0.47267 -0.592573,-0.2976 -1.703569,0.70875 -3.638029,0.56446 -5.490834,-0.40955 -5.933156,-3.11905 -4.338885,-12.31824 2.288874,-13.2072 0.706468,-0.0947 1.849236,-0.0157 2.539501,0.1743 0.929614,0.25669 1.255483,0.24386 1.256788,-0.0494 0.0019,-0.48248 2.594971,-0.68212 2.879528,-0.22171 0.112513,0.18205 -0.03052,0.2369 -0.324093,0.12425 -0.464951,-0.17839 -0.525507,0.64159 -0.525507,7.11477 v 7.31641 h -1.015847 c -0.707284,0 -1.015837,-0.1652 -1.015837,-0.54414 z m -0.650941,-1.68061 c 0.581793,-0.52652 0.650941,-1.08152 0.650941,-5.22473 0,-5.19554 -0.168156,-5.60649 -2.445187,-5.976 -1.852009,-0.30055 -3.216579,0.60821 -4.226838,2.81491 -1.985861,4.33767 0.355989,9.58769 4.074059,9.13332 0.712841,-0.0872 1.589001,-0.4235 1.947025,-0.7475 z m 6.937769,1.92077 c -0.450111,-0.17626 -0.529481,-0.33382 -0.253966,-0.50411 0.294443,-0.18198 0.400794,-2.9828 0.400794,-10.55542 v -10.30773 h 1.006392 1.006393 l 0.09406,10.58167 c 0.06018,6.77352 -0.02774,10.67121 -0.244512,10.83044 -0.418984,0.30782 -1.150302,0.2915 -2.009204,-0.0448 z m 15.045814,-0.009 -0.846529,-0.24511 0.76188,-0.25188 c 0.756188,-0.24998 0.76188,-0.30226 0.76188,-7.00131 v -6.74945 h 0.846529 c 0.684977,0 0.846529,0.1673 0.846529,0.87663 v 0.87664 l 1.04183,-0.87664 c 1.418503,-1.19359 3.068647,-1.18472 4.017534,0.0215 0.814807,1.03586 0.713485,1.34729 -0.26751,0.82227 -0.86346,-0.4621 -2.271895,-0.46996 -3.117541,-0.0175 -1.362304,0.72909 -1.674313,2.05594 -1.674313,7.12025 0,4.15425 0.06882,4.76724 0.515756,4.59571 0.420788,-0.16153 0.449766,-0.0745 0.157395,0.47171 -0.37317,0.69727 -1.437191,0.82208 -3.043441,0.35696 z m 18.285124,-0.23153 c 0,-0.38642 -0.17178,-0.47269 -0.592573,-0.2976 -1.703569,0.70875 -3.638029,0.56446 -5.490835,-0.40956 -5.933154,-3.11904 -4.338883,-12.31823 2.288874,-13.20719 0.70646,-0.0947 1.849236,-0.0158 2.539502,0.1743 0.929614,0.25669 1.255484,0.24386 1.256787,-0.0493 0.0019,-0.4825 2.594972,-0.68212 2.879529,-0.22171 0.112508,0.18205 -0.03052,0.2369 -0.324093,0.12425 -0.46495,-0.17841 -0.525507,0.64158 -0.525507,7.11476 v 7.31642 h -1.015847 c -0.707284,0 -1.015837,-0.1652 -1.015837,-0.54414 z m -0.65094,-1.68061 c 0.581792,-0.52652 0.65094,-1.08154 0.65094,-5.22473 0,-5.19554 -0.168157,-5.60649 -2.445187,-5.97601 -1.852018,-0.30054 -3.216579,0.6082 -4.226838,2.8149 -1.98586,4.33769 0.355988,9.5877 4.074049,9.13333 0.712841,-0.0871 1.589012,-0.4235 1.947036,-0.74749 z m 24.694908,1.68535 c -4.610396,-1.99932 -5.563478,-8.51331 -1.718938,-11.74827 1.764508,-1.48475 3.741538,-1.85474 6.457108,-1.20843 0.4263,0.1015 0.52313,-0.5369 0.60255,-3.97264 l 0.0946,-4.09353 1.09052,-0.0411 1.09051,-0.0411 -0.0939,10.82232 -0.0939,10.82229 h -0.97844 c -0.53813,0 -1.03239,-0.16187 -1.09834,-0.35973 -0.0847,-0.25392 -0.39827,-0.25392 -1.0661,0 -1.30341,0.49555 -2.88132,0.4294 -4.28582,-0.17967 z m 4.76445,-1.34674 c 0.57669,-0.52191 0.65094,-1.07666 0.65094,-4.86325 0,-4.87549 -0.27611,-5.60982 -2.24839,-5.97982 -2.76552,-0.51883 -4.910865,2.00956 -4.910865,5.78765 0,2.26877 1.055795,4.69 2.367475,5.4293 1.11177,0.62663 3.24847,0.43371 4.14084,-0.37388 z m 51.10433,-5.19651 c 0,-5.3534 -0.10333,-7.1225 -0.42326,-7.24577 -0.2328,-0.0898 0.22433,-0.1463 1.01584,-0.12565 1.39505,0.0364 1.43911,0.0717 1.43911,1.15609 v 1.11853 l 0.94217,-1.05448 c 1.96004,-2.19366 5.77838,-1.40411 6.74217,1.39414 0.22511,0.65359 0.41262,3.07522 0.42326,5.46654 0.0209,4.70719 0.25792,5.34643 1.99032,5.36935 l 0.90701,0.0122 -0.84653,0.48391 c -1.16809,0.66775 -2.15199,0.62377 -3.09466,-0.13842 -0.75534,-0.61065 -0.80873,-0.91088 -0.9687,-5.44768 -0.16753,-4.75101 -0.17929,-4.81002 -1.11938,-5.61808 -1.3141,-1.12957 -2.74534,-1.06741 -3.98588,0.17307 l -0.98978,0.98979 v 5.27455 5.27455 h -1.01585 -1.01584 v -7.08267 z m 20.99403,6.51487 c -1.38094,-0.37539 -2.15069,-0.41822 -2.97774,-0.16573 l -1.11537,0.34061 3.2381,-6.23723 3.23811,-6.23721 h -3.39253 -3.39254 v -0.84655 -0.84652 h 4.94221 4.94223 l -0.99783,1.77772 c -3.32959,5.93195 -5.57088,10.10934 -5.45949,10.17558 0.47019,0.27953 3.70904,1.25262 4.16929,1.25262 1.09474,0 2.56003,-1.04313 3.21931,-2.29179 0.57431,-1.08771 0.66928,-1.15291 0.68217,-0.4683 0.0254,1.35064 -0.98746,3.01517 -2.17871,3.58047 -1.35601,0.64346 -2.45378,0.63593 -4.91721,-0.0338 z m -126.064421,-0.31129 c -0.520737,-0.28235 -1.092144,-0.89565 -1.269803,-1.36294 -0.177658,-0.46726 -0.323008,-3.41796 -0.323008,-6.55705 v -5.70749 l -0.995987,-0.21877 c -0.547786,-0.12022 -1.309666,-0.0509 -1.693068,0.15435 -0.950615,0.50876 -0.906337,-0.14297 0.05548,-0.81669 0.413915,-0.28992 1.175796,-0.52711 1.693068,-0.52711 h 0.940498 v -3.04752 -3.04752 h 1.185145 1.185145 v 3.38612 c 0,1.86237 0.08619,3.38613 0.191566,3.38613 0.63447,0 1.621742,-0.88025 2.023727,-1.80437 l 0.46711,-1.07384 0.01325,1.05483 c 0.01479,1.17443 -1.003023,2.68625 -2.027259,3.01133 -0.629728,0.19987 -0.6684,0.53405 -0.6684,5.77646 0,5.11281 0.0549,5.61925 0.677231,6.24151 0.372479,0.37249 1.096262,0.68264 1.608409,0.68924 l 0.931188,0.0123 -0.846529,0.48393 c -1.083267,0.61925 -1.962421,0.61015 -3.147777,-0.0325 z"
     id="path882"
     inkscape:connector-curvature="0" />
</svg>
